<svg width="137" height="52" viewBox="0 0 137 52" fill="none" xmlns="http://www.w3.org/2000/svg">
<path d="M121.827 18.7106H132.654C135.055 18.7106 137 17.1022 137 15.1198V4.30144C137 1.92486 134.669 0 131.794 0H88.6522C88.0393 0 87.5432 0.410004 87.5432 0.916395V2.28307C87.5432 3.49151 86.3453 4.48127 84.8829 4.48127H52.1188C50.6564 4.48127 49.4586 3.49151 49.4586 2.28307V0.916395C49.4586 0.410004 48.9624 0 48.3496 0H5.20562C2.33121 0 0 1.9263 0 4.30144V15.1184C0 17.1022 1.94645 18.7091 4.34556 18.7091H14.5757C15.4985 18.7091 16.0939 19.5191 15.6656 20.1952L0.980188 43.4489C0.336015 44.4689 0 45.6025 0 46.752V47.6986C0 50.0751 2.33121 52 5.20562 52H131.794C134.671 52 137 50.0737 137 47.6986C137 46.5477 136.664 45.414 136.02 44.3955L120.737 20.1966C120.311 19.5205 120.904 18.7106 121.827 18.7106ZM70.4377 43.1324C70.4377 43.518 70.0599 43.8316 69.5916 43.8316H46.0619C45.5953 43.8316 45.2157 43.5194 45.2157 43.1324V37.3895C45.2157 36.6443 43.9918 36.417 43.6071 37.0917L39.9805 43.4316C39.8412 43.6762 39.5435 43.8316 39.2162 43.8316H13.1411C12.5213 43.8316 12.1122 43.2993 12.3751 42.8361L25.8505 19.1134C25.9898 18.8688 26.2875 18.712 26.6165 18.712H33.652C34.1185 18.712 34.4981 19.0242 34.4981 19.4112V26.0518C34.4981 26.7768 35.668 27.0214 36.0859 26.3855L40.8859 19.0788C41.0338 18.8544 41.3194 18.7134 41.6293 18.7134H49.523C49.8503 18.7134 50.1498 18.8702 50.289 19.1148L54.175 25.954C54.558 26.6301 55.7854 26.4043 55.7854 25.6576V19.4112C55.7854 19.0256 56.1632 18.712 56.6315 18.712H69.5986C70.0652 18.712 70.4447 19.0242 70.4447 19.4112V43.1338L70.4377 43.1324ZM70.4377 16.1283C70.4377 16.5138 70.0599 16.8274 69.5916 16.8274H26.9839L26.9613 16.8663V16.8274H26.9839L30.6 10.7148C30.741 10.4745 31.037 10.3235 31.3591 10.3235H69.5916C70.0582 10.3235 70.4377 10.6356 70.4377 11.0226V16.1297V16.1283ZM124.632 42.8375C124.891 43.3007 124.482 43.8301 123.864 43.8301H74.2523C73.7857 43.8301 73.4062 43.518 73.4062 43.131V19.7104C73.4062 19.3248 73.784 19.0112 74.2523 19.0112H76.392C76.8586 19.0112 77.2381 18.6991 77.2381 18.3121V11.0183C77.2381 10.6328 77.6159 10.3192 78.0843 10.3192H86.1573C86.4864 10.3192 86.7858 10.4774 86.9251 10.7234L91.3211 18.5667C91.4587 18.8141 91.7581 18.971 92.0889 18.971H98.2608C98.8789 18.971 99.288 18.4415 99.0286 17.9783L95.2906 11.3089C95.0312 10.8457 95.4404 10.3163 96.0584 10.3163H105.871C106.2 10.3163 106.499 10.4745 106.639 10.7205L124.637 42.8317L124.632 42.8375Z" fill="#08636D"/>
</svg>
